<?xml version="1.0" standalone="no"?>
<!DOCTYPE svg PUBLIC "-//W3C//DTD SVG 20010904//EN"
 "http://www.w3.org/TR/2001/REC-SVG-20010904/DTD/svg10.dtd">
<svg version="1.0" xmlns="http://www.w3.org/2000/svg"
 width="512.000000pt" height="512.000000pt" viewBox="0 0 512.000000 512.000000"
 preserveAspectRatio="xMidYMid meet">
<metadata>
Created by potrace 1.11, written by Peter Selinger 2001-2013
</metadata>
<g transform="translate(0.000000,512.000000) scale(0.100000,-0.100000)"
fill="#000000" stroke="none">
<path d="M2868 5115 c-2 -2 -33 -6 -69 -9 -174 -14 -430 -90 -634 -187 -395
-188 -697 -466 -953 -879 -61 -97 -202 -367 -202 -386 0 -5 -6 -20 -13 -35 -8
-14 -31 -79 -52 -145 -21 -65 -42 -124 -46 -129 -9 -12 -18 -54 -24 -105 -2
-19 -10 -75 -19 -125 -43 -250 -40 -501 9 -785 5 -25 29 -50 49 -50 6 0 45 7
86 16 41 9 86 18 100 20 14 3 41 9 60 14 19 5 71 16 115 25 88 18 88 18 160
35 29 6 51 7 53 2 11 -35 29 -43 104 -44 l77 -1 14 -41 c9 -23 54 -158 101
-300 70 -213 83 -262 73 -276 -10 -14 -102 -120 -142 -164 -75 -82 -92 -107
-87 -131 11 -59 52 -47 286 84 153 86 518 281 527 281 22 0 135 -164 157 -229
17 -48 8 -288 -14 -381 -3 -14 -8 -38 -11 -55 -3 -16 -8 -49 -12 -71 -5 -23
-4 -49 1 -57 8 -16 82 -67 438 -309 102 -69 210 -143 242 -164 259 -177 420
-281 518 -332 181 -95 474 -210 505 -198 7 2 18 13 24 24 8 15 0 40 -43 124
-132 262 -181 438 -240 863 -4 22 -8 51 -11 65 -2 14 -7 48 -10 75 -3 28 -12
95 -20 150 -8 55 -19 138 -25 185 -6 47 -13 96 -15 110 -2 14 -7 46 -10 72 -8
55 -4 53 -215 128 -286 102 -345 124 -354 131 -5 4 -3 28 4 56 6 26 14 62 17
78 9 57 -8 60 313 -55 225 -80 230 -82 231 -99 0 -9 2 -23 4 -31 1 -8 6 -35 9
-60 4 -25 9 -56 11 -70 3 -14 7 -41 9 -60 3 -19 7 -48 10 -65 7 -44 26 -182
33 -239 3 -27 9 -61 13 -75 7 -28 129 -128 168 -138 29 -7 55 16 54 49 0 22
-17 157 -26 208 -9 49 -43 336 -62 514 -3 33 -7 67 -9 75 -1 9 -6 50 -10 91
-4 41 -9 83 -10 92 -2 9 -6 48 -10 85 -3 37 -8 79 -10 93 -7 43 -31 251 -61
535 -3 28 -7 61 -9 75 -2 14 -6 56 -10 93 -3 37 -8 76 -10 85 -1 9 -6 53 -10
97 -7 85 -24 125 -53 125 -9 0 -61 -47 -115 -105 -89 -95 -127 -123 -127 -95
0 6 -29 39 -65 75 -36 35 -65 68 -65 72 0 4 52 127 115 272 63 145 115 272
115 282 0 10 -10 27 -21 38 l-22 20 39 53 c44 60 210 254 264 309 183 185 202
208 195 236 -10 41 -84 140 -156 208 -181 172 -453 289 -799 345 -66 11 -413
23 -422 15z"/>
</g>
</svg>
